<?xml version="1.0" encoding="UTF-8"?>
<svg version="1.1" xmlns="http://www.w3.org/2000/svg" width="500" height="500">
<path d="M0 0 C-1.43770951 3.83389204 -3.19830545 7.41563869 -5.09765625 11.03515625 C-9.33809311 20.26866162 -7.28980273 31.79075289 -4 41 C0.1196353 50.84932989 5.34679489 59.64810423 12 68 C12.33 67.67 12.66 67.34 13 67 C14.36315051 66.72863121 15.73694828 66.5101274 17.11328125 66.31640625 C17.94923828 66.19330078 18.78519531 66.07019531 19.64648438 65.94335938 C21.41179823 65.69117168 23.17742173 65.44114127 24.94335938 65.19335938 C25.78318359 65.06896484 26.62300781 64.94457031 27.48828125 64.81640625 C28.25696533 64.70756104 29.02564941 64.59871582 29.81762695 64.48657227 C32.05292246 64.08161844 32.05292246 64.08161844 34.11791992 62.93334961 C36.74140331 61.63232782 38.26275005 62.13560528 41 63 C43 65 43 65 43.3125 68.5 C43.209375 69.655 43.10625 70.81 43 72 C39.77786243 74.14809171 38.72224599 74.29386153 35 74 C34.67 73.67 34.34 73.34 34 73 C31.73097824 72.90019827 29.45871075 72.87032191 27.1875 72.875 C25.94355469 72.87242187 24.69960938 72.86984375 23.41796875 72.8671875 C20.71213998 72.97232827 18.55665645 73.18856748 16 74 C17.0828125 75.175625 17.0828125 75.175625 18.1875 76.375 C27.45559151 87.45984808 29.90370495 100.95910279 29 115 C26.78141369 131.82741315 19.00742729 144.0470497 5.625 154.375 C-6.80076266 163.00158137 -21.62137985 164.68033112 -36.359375 162.50390625 C-44.69648897 160.59241768 -52.24901356 157.27804394 -59 152 C-60.8675318 153.8675318 -60.43234834 156.92477197 -60.625 159.4375 C-60.72039062 160.61183594 -60.81578125 161.78617188 -60.9140625 162.99609375 C-61.23464699 165.92454646 -61.23464699 165.92454646 -60 168 C-59.73859126 171.07155269 -59.56095252 173.199384 -61.0625 175.9375 C-64.12469653 177.61676907 -66.69370941 176.68621125 -70 176 C-71.1875 173.9375 -71.1875 173.9375 -72 171 C-71.30649077 169.3157633 -70.6008848 167.63428732 -69.8046875 165.99609375 C-66.75949504 158.44224256 -67.88762112 148.96641397 -68 141 C-68.66 141 -69.32 141 -70 141 C-71.13549767 138.8383039 -72.25828972 136.6713811 -73.375 134.5 C-73.69210938 133.89929688 -74.00921875 133.29859375 -74.3359375 132.6796875 C-80.85889504 119.90556231 -81.18701274 104.0171222 -76.875 90.4375 C-70.49668161 71.90913499 -57.51689745 55.82393697 -44.37109375 41.59765625 C-42.34776855 39.38099849 -40.41102712 37.12535678 -38.5 34.8125 C-37.675 33.884375 -36.85 32.95625 -36 32 C-35.34 32 -34.68 32 -34 32 C-33.7834375 31.45859375 -33.566875 30.9171875 -33.34375 30.359375 C-31.53500003 27.18354656 -29.08276201 24.79271919 -26.5 22.25 C-26.00113281 21.74339844 -25.50226563 21.23679688 -24.98828125 20.71484375 C-21.25341139 17 -21.25341139 17 -19 17 C-19 16.34 -19 15.68 -19 15 C-18.34 15 -17.68 15 -17 15 C-17 14.34 -17 13.68 -17 13 C-15.49609375 11.484375 -15.49609375 11.484375 -13.4375 9.75 C-12.71175781 9.13511719 -11.98601562 8.52023438 -11.23828125 7.88671875 C-10.13033203 6.95279297 -10.13033203 6.95279297 -9 6 C-8.00033203 5.11248047 -8.00033203 5.11248047 -6.98046875 4.20703125 C-6.36816406 3.66433594 -5.75585938 3.12164062 -5.125 2.5625 C-4.57070313 2.06878906 -4.01640625 1.57507813 -3.4453125 1.06640625 C-2 0 -2 0 0 0 Z M10 70 C-5.77178385 75.27281531 -19.21585201 82.27182267 -32.171875 92.7578125 C-34.92658684 94.62960388 -37.74192519 94.68672358 -41 95 C-41 96.11375 -41 97.2275 -41 98.375 C-41.50219917 102.34443728 -42.82517892 104.32173401 -45.4375 107.3125 C-49.54955897 112.08635507 -52.46472676 117.13558595 -55.375 122.6875 C-55.80353271 123.49550049 -56.23206543 124.30350098 -56.67358398 125.13598633 C-59.01232326 129.67221752 -61.06820827 133.96211269 -62 139 C-61.26878594 141.3892395 -61.26878594 141.3892395 -60 143 C-59.63648438 142.04480469 -59.27296875 141.08960938 -58.8984375 140.10546875 C-54.10184206 127.68657673 -48.58146882 114.58146882 -39 105 C-36.34536879 104.54540142 -33.67810862 104.29756762 -31 104 C-31.061875 102.865625 -31.12375 101.73125 -31.1875 100.5625 C-30.60646021 96.16983921 -28.69690684 94.32977249 -25.375 91.5 C-13.99609957 82.96949529 -1.3604262 77.63489161 12 73 C11.01 71.515 11.01 71.515 10 70 Z " fill="#F19203" transform="translate(268,159)"/>
<path d="M0 0 C9.44315144 8.98250991 12.88102799 22.02963737 13.25 34.625 C13.05518217 50.07405402 8.08380173 62.47284541 -2.51953125 73.64453125 C-15.0389429 85.53304342 -27.85234306 89.48476866 -44.890625 89.21484375 C-55.55872876 88.81762712 -68.49365736 85.00676548 -76 77 C-76.375 74.3125 -76.375 74.3125 -76 72 C-75.505 71.505 -75.505 71.505 -75 71 C-74.8028949 69.12598537 -74.61776887 67.25070903 -74.4375 65.375 C-72.53126066 52.49729427 -64.13755094 39.13755094 -55 30 C-52.31160615 29.73008094 -49.70858064 29.91262643 -47 30 C-47.185625 28.845 -47.37125 27.69 -47.5625 26.5 C-47.52761769 23.6645664 -47.23204475 22.32134111 -45.55859375 20.00390625 C-36.08172681 11.0665194 -13.30973809 -3.99292143 0 0 Z " fill="#F09103" transform="translate(284,233)"/>
<path d="M0 0 C0.33 0.66 0.66 1.32 1 2 C0.32181829 3.79956113 -0.44498545 5.56598854 -1.25 7.3125 C-7.98375298 23.04959958 -9.2627149 38.3269569 -2.9375 54.3125 C-2.59589844 55.13363281 -2.25429687 55.95476562 -1.90234375 56.80078125 C-1.2018293 58.50809568 -0.58357888 60.24926337 0 62 C0.99 62 1.98 62 3 62 C3 60.02 3 58.04 3 56 C3.99 56 4.98 56 6 56 C5.77183594 56.77085937 5.54367188 57.54171875 5.30859375 58.3359375 C5.02113281 59.33882813 4.73367187 60.34171875 4.4375 61.375 C4.14746094 62.37273437 3.85742188 63.37046875 3.55859375 64.3984375 C2.72343518 66.9677164 2.72343518 66.9677164 4 69 C4.66 67.68 5.32 66.36 6 65 C6.09765625 71.15234375 6.09765625 71.15234375 6 73 C5.67 73.33 5.34 73.66 5 74 C4.59700961 76.22085947 4.25278183 78.45250214 3.9375 80.6875 C3.76089844 81.90824219 3.58429688 83.12898438 3.40234375 84.38671875 C2.56321292 90.3489411 2.56321292 90.3489411 4 96 C4.26140874 99.07155269 4.43904748 101.199384 2.9375 103.9375 C-0.12469653 105.61676907 -2.69370941 104.68621125 -6 104 C-7.1875 101.9375 -7.1875 101.9375 -8 99 C-7.30649077 97.3157633 -6.6008848 95.63428732 -5.8046875 93.99609375 C-2.75949504 86.44224256 -3.88762112 76.96641397 -4 69 C-4.66 69 -5.32 69 -6 69 C-6.99 66.03 -6.99 66.03 -8 63 C-7.01 63 -6.02 63 -5 63 C-5.6496875 61.515 -5.6496875 61.515 -6.3125 60 C-6.89253679 58.67420162 -7.45048462 57.33873705 -8 56 C-8.52335938 54.78957031 -9.04671875 53.57914062 -9.5859375 52.33203125 C-11.28837146 47.74516806 -11.42100727 43.5389041 -11.3125 38.6875 C-11.30049561 37.85081787 -11.28849121 37.01413574 -11.27612305 36.15209961 C-10.97627873 22.98574417 -8.03752992 10.71670656 0 0 Z " fill="#FEC87A" transform="translate(204,231)"/>
<path d="M0 0 C0.495 1.485 0.495 1.485 1 3 C0.54367188 3.41121094 0.08734375 3.82242188 -0.3828125 4.24609375 C-2.1100539 6.11935798 -2.88881365 7.72794381 -3.875 10.0625 C-5.65805369 13.84890744 -5.65805369 13.84890744 -8.6875 15.1875 C-9.8321875 15.5896875 -9.8321875 15.5896875 -11 16 C-11.21269531 17.10601562 -11.21269531 17.10601562 -11.4296875 18.234375 C-12.11308663 21.54839269 -13.42732345 23.35858269 -15.4375 26.0625 C-17.5802071 28.96566682 -19.49110574 31.71682807 -21 35 C-21.66 35 -22.32 35 -23 35 C-23.2475 35.556875 -23.495 36.11375 -23.75 36.6875 C-25 39 -25 39 -26.9140625 41.29296875 C-34.78876176 51.51238183 -36.13383816 64.23512921 -36.3125 76.6875 C-36.33030518 77.48357666 -36.34811035 78.27965332 -36.36645508 79.09985352 C-36.35883748 84.73863352 -35.19936591 88.81104375 -33 94 C-32.27247908 96.32046431 -31.63588157 98.65212957 -31 101 C-33.3125 100.9375 -33.3125 100.9375 -36 100 C-42.66754675 87.89963738 -43.15750625 71.59195971 -39.51293945 58.4465332 C-33.35057351 39.03967926 -20.01228476 22.31402012 -6.33203125 7.578125 C-4.11322519 5.12517357 -2.03758215 2.60435787 0 0 Z " fill="#E8A944" transform="translate(230,193)"/>
<path d="M0 0 C0.42410156 0.37511719 0.84820312 0.75023437 1.28515625 1.13671875 C14.15645397 12.36727962 25.65357006 16.85135852 43 16 C47.28544139 15.37041929 51.22471172 13.93341436 55.25 12.375 C59 11 59 11 63 11 C63 10.34 63 9.68 63 9 C64.65 9 66.3 9 68 9 C61.49780499 16.63301153 50.72152077 20.68659792 41 22 C25.57509629 22.85511193 13.03796606 20.42429828 -0.125 12 C-2 10 -2 10 -2.4375 7.5625 C-1.969317 4.82028527 -1.15464664 2.52578952 0 0 Z " fill="#FDC164" transform="translate(210,300)"/>
<path d="M0 0 C8.41217604 2.43458271 16.70386716 5.20143786 25 8 C24 11 24 11 20 14 C23.96 17.96 27.92 21.92 32 26 C31.34 27.32 30.68 28.64 30 30 C29.01 30.33 28.02 30.66 27 31 C23.24404454 28.43013574 20.20795838 25.20795838 17 22 C16.01 21.34 15.02 20.68 14 20 C13.54625 20.66 13.0925 21.32 12.625 22 C12.08875 22.66 11.5525 23.32 11 24 C10.34 24 9.68 24 9 24 C5.90895131 16.03168187 2.88588935 8.04502114 0 0 Z " fill="#110702" transform="translate(240,265)"/>
<path d="M0 0 C0.33 0 0.66 0 1 0 C1.09765625 6.15234375 1.09765625 6.15234375 1 8 C0.67 8.33 0.34 8.66 0 9 C-0.40299039 11.22085947 -0.74721817 13.45250214 -1.0625 15.6875 C-1.23910156 16.90824219 -1.41570312 18.12898438 -1.59765625 19.38671875 C-2.43678708 25.3489411 -2.43678708 25.3489411 -1 31 C-0.73859126 34.07155269 -0.56095252 36.199384 -2.0625 38.9375 C-5.12469653 40.61676907 -7.69370941 39.68621125 -11 39 C-12.1875 36.9375 -12.1875 36.9375 -13 34 C-12.26020511 32.36908855 -11.51936523 30.73863978 -10.7722168 29.11108398 C-9.29556636 25.07422142 -9.14660441 20.82003231 -8.8125 16.5625 C-8.73064453 15.64017578 -8.64878906 14.71785156 -8.56445312 13.76757812 C-8.36581083 11.51240384 -8.17793147 9.25688658 -8 7 C-7.01 7 -6.02 7 -5 7 C-4.67 5.35 -4.34 3.7 -4 2 C-3.34 2 -2.68 2 -2 2 C-1.67 2.66 -1.34 3.32 -1 4 C-0.67 2.68 -0.34 1.36 0 0 Z " fill="#FDFDFC" transform="translate(209,296)"/>
<path d="M0 0 C2 2 2 2 2.3125 5.5 C2.209375 6.655 2.10625 7.81 2 9 C-1.22213757 11.14809171 -2.27775401 11.29386153 -6 11 C-6.33 10.67 -6.66 10.34 -7 10 C-9.22729872 9.89969781 -11.45794883 9.87034054 -13.6875 9.875 C-14.90824219 9.87242187 -16.12898438 9.86984375 -17.38671875 9.8671875 C-20.96301974 9.90587646 -20.96301974 9.90587646 -24.26953125 10.6328125 C-27 11 -27 11 -30 9 C-29.125 5.125 -29.125 5.125 -28 4 C-26.63684949 3.72863121 -25.26305172 3.5101274 -23.88671875 3.31640625 C-23.05076172 3.19330078 -22.21480469 3.07019531 -21.35351562 2.94335938 C-19.58820177 2.69117168 -17.82257827 2.44114127 -16.05664062 2.19335938 C-15.21681641 2.06896484 -14.37699219 1.94457031 -13.51171875 1.81640625 C-12.74303467 1.70756104 -11.97435059 1.59871582 -11.18237305 1.48657227 C-8.94707754 1.08161844 -8.94707754 1.08161844 -6.88208008 -0.06665039 C-4.25859669 -1.36767218 -2.73724995 -0.86439472 0 0 Z " fill="#FEFEFD" transform="translate(309,222)"/>
<path d="M0 0 C-1.43770951 3.83389204 -3.19830545 7.41563869 -5.09765625 11.03515625 C-9.46146816 20.53730946 -6.81796008 31.44642801 -4 41 C-3.78730469 41.76183594 -3.57460938 42.52367187 -3.35546875 43.30859375 C-2.91704242 44.87620443 -2.46122111 46.43894395 -2 48 C-5 47 -5 47 -7 45 C-7.1953125 42.8359375 -7.1953125 42.8359375 -7.125 40.375 C-7.09792969 39.14910156 -7.09792969 39.14910156 -7.0703125 37.8984375 C-7.04710937 37.27195313 -7.02390625 36.64546875 -7 36 C-7.66 36 -8.32 36 -9 36 C-10.41031837 28.06695918 -10.7108173 19.91253 -9 12 C-10.65 12.33 -12.3 12.66 -14 13 C-14 13.66 -14 14.32 -14 15 C-14.61875 15.061875 -15.2375 15.12375 -15.875 15.1875 C-18.2590293 15.81552157 -18.2590293 15.81552157 -19.125 18.4375 C-19.41375 19.283125 -19.7025 20.12875 -20 21 C-20.66 21.66 -21.32 22.32 -22 23 C-24.125 22.625 -24.125 22.625 -26 22 C-24.37660195 20.29115995 -22.70680947 18.62553283 -21 17 C-20.34 17 -19.68 17 -19 17 C-19 16.34 -19 15.68 -19 15 C-18.34 15 -17.68 15 -17 15 C-17 14.34 -17 13.68 -17 13 C-15.49609375 11.484375 -15.49609375 11.484375 -13.4375 9.75 C-12.71175781 9.13511719 -11.98601562 8.52023438 -11.23828125 7.88671875 C-10.13033203 6.95279297 -10.13033203 6.95279297 -9 6 C-8.33355469 5.40832031 -7.66710937 4.81664062 -6.98046875 4.20703125 C-6.36816406 3.66433594 -5.75585938 3.12164062 -5.125 2.5625 C-4.57070313 2.06878906 -4.01640625 1.57507813 -3.4453125 1.06640625 C-2 0 -2 0 0 0 Z " fill="#E8AD4B" transform="translate(268,159)"/>
<path d="M0 0 C2.24845077 2.24845077 2.92379464 3.98898917 4.0625 6.9375 C4.40410156 7.81277344 4.74570313 8.68804687 5.09765625 9.58984375 C5.76791766 11.38010907 6.39549191 13.18647574 7 15 C7.99 15 8.98 15 10 15 C10 13.02 10 11.04 10 9 C10.99 9 11.98 9 13 9 C11.25192871 14.46737191 9.34205919 19.75824848 7 25 C5.68 24.67 4.36 24.34 3 24 C3 23.34 3 22.68 3 22 C2.34 22 1.68 22 1 22 C0.34 20.02 -0.32 18.04 -1 16 C-0.01 16 0.98 16 2 16 C1.505 14.9275 1.01 13.855 0.5 12.75 C-1.52742429 8.35724737 -1.02862829 4.6288273 0 0 Z " fill="#FAC375" transform="translate(197,278)"/>
<path d="M0 0 C0.66 0 1.32 0 2 0 C2.03738281 0.94359375 2.07476562 1.8871875 2.11328125 2.859375 C2.25596809 16.97270873 2.25596809 16.97270873 8 29 C8.39764263 30.98821313 8.73775349 32.98944339 9 35 C6.6875 34.9375 6.6875 34.9375 4 34 C0.95813764 28.35082705 -0.13479623 23.05015599 -0.09765625 16.69921875 C-0.09443359 15.72275391 -0.09121094 14.74628906 -0.08789062 13.74023438 C-0.07951172 12.73283203 -0.07113281 11.72542969 -0.0625 10.6875 C-0.05798828 9.66076172 -0.05347656 8.63402344 -0.04882812 7.57617188 C-0.03708184 5.05072118 -0.02065565 2.52539095 0 0 Z " fill="#E5A645" transform="translate(190,259)"/>
<path d="M0 0 C0.556875 0.45375 1.11375 0.9075 1.6875 1.375 C3.89658872 3.07022185 3.89658872 3.07022185 6.3125 3.875 C9 5 9 5 11.8125 7.375 C17.48929199 11.66441458 25.18696348 12.53597415 32 14 C32 14.33 32 14.66 32 15 C23.36259621 15.44231371 16.51082133 15.52040173 9 11 C8.15953125 10.52949219 7.3190625 10.05898438 6.453125 9.57421875 C1.7244617 6.73261518 1.7244617 6.73261518 0 5 C-0.24609375 2.30859375 -0.24609375 2.30859375 0 0 Z " fill="#E7A648" transform="translate(208,305)"/>
<path d="M0 0 C5.15334589 4.54966823 7.37022299 12.12778732 7.90625 18.828125 C7.9371875 19.54484375 7.968125 20.2615625 8 21 C8.0515625 21.88171875 8.103125 22.7634375 8.15625 23.671875 C8.41029606 31.6743259 7.30497096 39.32381232 5 47 C4.34 47.66 3.68 48.32 3 49 C3.875 41.25 3.875 41.25 5 39 C5.98844739 28.63152768 5.65116394 18.50954711 1.97265625 8.7265625 C0.93786547 5.82582369 0.42658953 3.0445021 0 0 Z " fill="#E5AD5D" transform="translate(289,241)"/>
<path d="M0 0 C-0.96421875 0.68707031 -1.9284375 1.37414062 -2.921875 2.08203125 C-4.19793477 2.99216212 -5.47397543 3.90231978 -6.75 4.8125 C-7.38421875 5.26431641 -8.0184375 5.71613281 -8.671875 6.18164062 C-9.290625 6.62314453 -9.909375 7.06464844 -10.546875 7.51953125 C-11.14918945 7.9472583 -11.75150391 8.37498535 -12.37207031 8.81567383 C-13.6864612 9.77189911 -14.95995476 10.7841884 -16.21875 11.8125 C-19.02593812 13.68395874 -21.73145154 13.1885701 -25 13 C-25 15.64 -25 18.28 -25 21 C-25.66 21.33 -26.32 21.66 -27 22 C-27.0270043 20.54176788 -27.04639787 19.08339325 -27.0625 17.625 C-27.07410156 16.81289063 -27.08570313 16.00078125 -27.09765625 15.1640625 C-27 13 -27 13 -26 11 C-23.69 11 -21.38 11 -19 11 C-19 10.34 -19 9.68 -19 9 C-17.5459375 8.319375 -17.5459375 8.319375 -16.0625 7.625 C-12.92920418 6.34213779 -12.92920418 6.34213779 -12 4 C-11.01 4 -10.02 4 -9 4 C-9 3.01 -9 2.02 -9 1 C-5.47051709 -0.66670026 -3.71727674 -1.13583456 0 0 Z " fill="#E7AC52" transform="translate(252,241)"/>
<path d="M0 0 C1.65 0 3.3 0 5 0 C-0.9410905 6.97432363 -9.10934698 9.99102786 -18 11 C-20.36481449 11.12246361 -22.63063462 11.10301589 -25 11 C-21.36576791 8.67409146 -18.22911669 8.83734167 -14 9 C-14 8.01 -14 7.02 -14 6 C-12.42032193 5.32471777 -10.83608097 4.66010306 -9.25 4 C-7.92742187 3.443125 -7.92742187 3.443125 -6.578125 2.875 C-4 2 -4 2 0 2 C0 1.34 0 0.68 0 0 Z " fill="#EA9F30" transform="translate(273,309)"/>
<path d="M0 0 C0.33 0 0.66 0 1 0 C1.09796875 1.31613281 1.1959375 2.63226563 1.296875 3.98828125 C2.34084962 16.84480834 2.34084962 16.84480834 6.1953125 29.1015625 C7 31 7 31 7 33 C4 32 4 32 2 30 C1.8046875 27.8359375 1.8046875 27.8359375 1.875 25.375 C1.89304687 24.55773437 1.91109375 23.74046875 1.9296875 22.8984375 C1.96449219 21.95871094 1.96449219 21.95871094 2 21 C1.34 21 0.68 21 0 21 C-1.20504941 14.22159705 -2.20370931 6.61112794 0 0 Z " fill="#E8AD4F" transform="translate(259,174)"/>
<path d="M0 0 C2.35953094 2.35953094 2.49141413 3.77895617 3 7 C4.98 5.35 6.96 3.7 9 2 C10.15224028 2.92961422 11.29659176 3.8690125 12.4375 4.8125 C13.39462891 5.59560547 13.39462891 5.59560547 14.37109375 6.39453125 C16 8 16 8 17 11 C16.34 11 15.68 11 15 11 C15 10.34 15 9.68 15 9 C11.78032535 8.92334108 8.92226705 9.01494864 5.75 9.625 C4.8425 9.74875 3.935 9.8725 3 10 C-0.00617269 6.99382731 0.40414684 4.17618402 0 0 Z " fill="#DD8F1B" transform="translate(246,282)"/>
<path d="M0 0 C1.95089317 1.88344207 3.39730616 3.78451145 5 6 C4.01 6.33 3.02 6.66 2 7 C1.67 6.01 1.34 5.02 1 4 C-4.68808186 3.06462654 -8.5149707 2.92787782 -14 5 C-17.375 5.125 -17.375 5.125 -20 5 C-14.47956865 1.31971244 -6.5133458 -2.79143391 0 0 Z " fill="#E6AB4F" transform="translate(284,233)"/>
<path d="M0 0 C0.33 0.66 0.66 1.32 1 2 C0.32181829 3.79956113 -0.44498545 5.56598854 -1.25 7.3125 C-4.04360646 13.73234772 -5.64092171 20.14936148 -7 27 C-7.33 26.34 -7.66 25.68 -8 25 C-8.66 25 -9.32 25 -10 25 C-9.38239138 15.9417402 -5.41340606 7.21787474 0 0 Z " fill="#FDBC58" transform="translate(204,231)"/>
<path d="M0 0 C1.56337173 0.45535099 3.12565849 0.91442776 4.6875 1.375 C5.55761719 1.63023437 6.42773438 1.88546875 7.32421875 2.1484375 C10 3 10 3 12.32226562 4.02734375 C15.19418683 5.07053613 17.47386943 5.31197328 20.51953125 5.4140625 C21.54111328 5.45273437 22.56269531 5.49140625 23.61523438 5.53125 C25.19788086 5.57765625 25.19788086 5.57765625 26.8125 5.625 C27.88693359 5.66367187 28.96136719 5.70234375 30.06835938 5.7421875 C32.71207088 5.83618613 35.3557805 5.92184573 38 6 C38 6.33 38 6.66 38 7 C24.87335516 9.46370962 12.92794284 7.95234574 1 2 C0.67 1.34 0.34 0.68 0 0 Z " fill="#EC981D" transform="translate(221,309)"/>
<path d="M0 0 C-5.22155697 3.48103798 -10.88729716 3.15947013 -17 3.125 C-17.68578125 3.12886719 -18.3715625 3.13273437 -19.078125 3.13671875 C-23.15626809 3.12893603 -26.99977115 2.78754506 -31 2 C-31 1.67 -31 1.34 -31 1 C-20.69339617 -0.32378398 -10.36776236 -0.09139066 0 0 Z " fill="#EBB867" transform="translate(260,319)"/>
<path d="M0 0 C0.67095703 0.58007812 0.67095703 0.58007812 1.35546875 1.171875 C1.96003906 1.69265625 2.56460938 2.2134375 3.1875 2.75 C3.82171875 3.2965625 4.4559375 3.843125 5.109375 4.40625 C6.68220486 5.73210658 8.30440766 6.99912076 9.9375 8.25 C10.618125 8.8275 11.29875 9.405 12 10 C12 10.66 12 11.32 12 12 C7.86331482 11.39166394 4.59021315 10.15412789 1 8 C-0.4375 6.0625 -0.4375 6.0625 -1 4 C-0.70681608 2.65726694 -0.37793241 1.32138412 0 0 Z " fill="#FDCA7C" transform="translate(210,300)"/>
<path d="M0 0 C0.33 0 0.66 0 1 0 C1.144375 0.7425 1.28875 1.485 1.4375 2.25 C1.91488997 4.8506772 1.91488997 4.8506772 2.5625 6.71875 C3.18517776 9.96556975 2.83642809 12.96286298 2.5625 16.25 C2.46066406 17.51328125 2.35882813 18.7765625 2.25390625 20.078125 C2.17011719 21.04234375 2.08632812 22.0065625 2 23 C1.67 23 1.34 23 1 23 C1 18.05 1 13.1 1 8 C0.34 8 -0.32 8 -1 8 C-1 14.27 -1 20.54 -1 27 C-1.33 27 -1.66 27 -2 27 C-2.05865035 23.81257885 -2.09381259 20.62529882 -2.125 17.4375 C-2.14175781 16.54224609 -2.15851563 15.64699219 -2.17578125 14.72460938 C-2.21479596 9.39910095 -1.75475782 5.03629311 0 0 Z " fill="#E8B45A" transform="translate(191,251)"/>
<path d="M0 0 C0.66 0 1.32 0 2 0 C2.06058594 0.99 2.12117187 1.98 2.18359375 3 C2.60460466 9.69466638 3.05074129 16.35518903 4 23 C3.34 23 2.68 23 2 23 C0.27793812 20.00873681 -0.24179923 17.89314287 -0.1953125 14.453125 C-0.18886719 13.60878906 -0.18242187 12.76445312 -0.17578125 11.89453125 C-0.15902344 11.02183594 -0.14226562 10.14914062 -0.125 9.25 C-0.11597656 8.36183594 -0.10695312 7.47367187 -0.09765625 6.55859375 C-0.07414577 4.37211942 -0.04128499 2.18619906 0 0 Z " fill="#E5941F" transform="translate(190,259)"/>
<path d="M0 0 C1.24834144 2.49668289 0.95155125 3.81329151 0.625 6.5625 C0.53476563 7.36816406 0.44453125 8.17382812 0.3515625 9.00390625 C0 11 0 11 -1 12 C-3.67058851 12.14115161 -6.32432238 12.04247107 -9 12 C-9.33 12.99 -9.66 13.98 -10 15 C-12.0625 15.6875 -12.0625 15.6875 -14 16 C-11.125 11.125 -11.125 11.125 -10 10 C-7.32941149 9.85884839 -4.67567762 9.95752893 -2 10 C-2.04125 8.72125 -2.0825 7.4425 -2.125 6.125 C-2.1953125 3.9453125 -2.1953125 3.9453125 -2 2 C-1.34 1.34 -0.68 0.68 0 0 Z " fill="#E2A548" transform="translate(239,253)"/>
<path d="M0 0 C2 2.5 2 2.5 4 5 C4.763125 5.845625 5.52625 6.69125 6.3125 7.5625 C8 10 8 10 7.75 12.3125 C7.5025 12.869375 7.255 13.42625 7 14 C4.69 14.33 2.38 14.66 0 15 C0.33 14.34 0.66 13.68 1 13 C2.32 13 3.64 13 5 13 C5 12.01 5 11.02 5 10 C4.01 10 3.02 10 2 10 C0.68373308 6.38026598 0 3.90432869 0 0 Z " fill="#E5B466" transform="translate(271,216)"/>
<path d="M0 0 C3.42437702 1.23658059 6.44734711 2.35280441 9 5 C9.5625 7.9375 9.5625 7.9375 9 11 C6.6875 13.4375 6.6875 13.4375 4 15 C3.01 14.67 2.02 14.34 1 14 C1 13.34 1 12.68 1 12 C0.34 12 -0.32 12 -1 12 C-0.67 11.34 -0.34 10.68 0 10 C0.61875 10.33 1.2375 10.66 1.875 11 C3.91018344 12.14193235 3.91018344 12.14193235 6 12 C6.81488288 10.19849093 6.81488288 10.19849093 7 8 C5.5884942 6.01972823 5.5884942 6.01972823 3.5625 4.3125 C2.36553525 3.21860071 1.17553083 2.11690086 0 1 C0 0.67 0 0.34 0 0 Z " fill="#CD861C" transform="translate(264,283)"/>
<path d="M0 0 C0.66 0 1.32 0 2 0 C0.40300825 6.92029757 -4.12292826 13.08195217 -10 17 C-10 16.01 -10 15.02 -10 14 C-9.34 14 -8.68 14 -8 14 C-8.33 12.68 -8.66 11.36 -9 10 C-7.68 10 -6.36 10 -5 10 C-5 8.68 -5 7.36 -5 6 C-3.625 4.25 -3.625 4.25 -2 3 C-1.34 3 -0.68 3 0 3 C0 2.01 0 1.02 0 0 Z " fill="#E8B158" transform="translate(290,290)"/>
<path d="M0 0 C4.37651058 3.87490478 6.65250136 9.66935923 7.25390625 15.43359375 C7.25059539 17.29098883 7.13720912 19.14767684 7 21 C4.43397243 18.43397243 3.97857301 16.21760439 2.9375 12.75 C2.59589844 11.63109375 2.25429688 10.5121875 1.90234375 9.359375 C1.06558861 6.24418272 0.46868451 3.1889874 0 0 Z " fill="#E5AC4C" transform="translate(289,241)"/>
<path d="M0 0 C1 2 1 2 0.3125 4.75 C-1.07926349 8.1962715 -2.84459722 10.9824361 -5 14 C-5.66 13.67 -6.32 13.34 -7 13 C-6.81523971 8.38099287 -6.20125576 5.78017921 -2.9375 2.5625 C-1.968125 1.716875 -0.99875 0.87125 0 0 Z " fill="#ECA439" transform="translate(219,206)"/>
<path d="M0 0 C0.99 0 1.98 0 3 0 C3 0.99 3 1.98 3 3 C0.04335481 4.4783226 -2.74229737 4.06032783 -6 4 C-6 6.64 -6 9.28 -6 12 C-6.99 12.495 -6.99 12.495 -8 13 C-8.0270043 11.54176788 -8.04639787 10.08339325 -8.0625 8.625 C-8.07410156 7.81289063 -8.08570313 7.00078125 -8.09765625 6.1640625 C-8 4 -8 4 -7 2 C-4.69 2 -2.38 2 0 2 C0 1.34 0 0.68 0 0 Z " fill="#DDA143" transform="translate(233,250)"/>
<path d="M0 0 C1.43088528 2.86177057 0.59991697 4.93375773 0 8 C-0.66 8 -1.32 8 -2 8 C-2 8.99 -2 9.98 -2 11 C-3.98 11.99 -5.96 12.98 -8 14 C-6.6744419 10.37723685 -5.05653045 7.36494652 -2.875 4.1875 C-2.33617187 3.39730469 -1.79734375 2.60710937 -1.2421875 1.79296875 C-0.83226562 1.20128906 -0.42234375 0.60960937 0 0 Z " fill="#E9AB47" transform="translate(224,269)"/>
<path d="M0 0 C1.65 0 3.3 0 5 0 C5 0.66 5 1.32 5 2 C6.134375 2.28875 7.26875 2.5775 8.4375 2.875 C9.613125 3.24625 10.78875 3.6175 12 4 C12.33 4.66 12.66 5.32 13 6 C9.37 5.01 5.74 4.02 2 3 C2.33 4.32 2.66 5.64 3 7 C2.01 7 1.02 7 0 7 C0 4.69 0 2.38 0 0 Z " fill="#CC8527" transform="translate(239,263)"/>
<path d="M0 0 C3.16115776 1.36983503 3.9927092 1.9890638 6 5 C5.360625 5.45375 4.72125 5.9075 4.0625 6.375 C1.90297594 7.83921726 1.90297594 7.83921726 1 10 C0.01 8.68 -0.98 7.36 -2 6 C-0.68 5.67 0.64 5.34 2 5 C2 4.34 2 3.68 2 3 C1.34 3 0.68 3 0 3 C0 2.01 0 1.02 0 0 Z " fill="#200E02" transform="translate(258,279)"/>
<path d="M0 0 C5.36513131 0.847126 10.6787385 1.91681831 16 3 C16 3.33 16 3.66 16 4 C14.08364783 4.05423638 12.16685075 4.09289963 10.25 4.125 C8.64898437 4.15980469 8.64898437 4.15980469 7.015625 4.1953125 C4.07529894 4.00487687 2.47638122 3.52670104 0 2 C0 1.34 0 0.68 0 0 Z " fill="#DF9525" transform="translate(224,316)"/>
<path d="M0 0 C-7.28571429 4.42857143 -7.28571429 4.42857143 -12 5 C-11 2 -11 2 -7.6875 0.25 C-3.02436902 -1.33072237 -3.02436902 -1.33072237 0 0 Z " fill="#E9B866" transform="translate(272,314)"/>
<path d="M0 0 C0.66 0 1.32 0 2 0 C1.67 3.96 1.34 7.92 1 12 C0.67 11.34 0.34 10.68 0 10 C-0.66 10 -1.32 10 -2 10 C-1.54177532 6.53058454 -1.10868317 3.32604951 0 0 Z " fill="#FCC067" transform="translate(196,246)"/>
<path d="M0 0 C5.85659906 1.66153012 11.4590134 3.47041916 17 6 C14.17496557 7.12864571 12.98366296 6.99492545 10.01953125 6.07421875 C8.96121094 5.61660156 7.90289062 5.15898437 6.8125 4.6875 C5.74644531 4.23761719 4.68039063 3.78773438 3.58203125 3.32421875 C1 2 1 2 0 0 Z " fill="#EC9D29" transform="translate(221,309)"/>
<path d="M0 0 C0.66 0 1.32 0 2 0 C4.74375671 2.95481492 5 3.77471908 5 8 C3.125 7.875 3.125 7.875 1 7 C-0.25 3.9375 -0.25 3.9375 -1 1 C-0.67 0.67 -0.34 0.34 0 0 Z " fill="#E29F39" transform="translate(199,295)"/>
<path d="M0 0 C-1.3697164 3.99500618 -3.25722422 6.80009492 -6 10 C-6 8.68 -6 7.36 -6 6 C-6.66 5.67 -7.32 5.34 -8 5 C-2.25 0 -2.25 0 0 0 Z " fill="#E5C98C" transform="translate(268,159)"/>
<path d="M0 0 C-1.12005631 3.36016893 -2.37211797 4.69064913 -5 7 C-5.66 7 -6.32 7 -7 7 C-7.33 5.35 -7.66 3.7 -8 2 C-7.38125 1.855625 -6.7625 1.71125 -6.125 1.5625 C-0.22222222 0 -0.22222222 0 0 0 Z " fill="#2A1203" transform="translate(256,282)"/>
<path d="M0 0 C1.98 1.65 3.96 3.3 6 5 C5.01 5.33 4.02 5.66 3 6 C2.67 6.99 2.34 7.98 2 9 C0.4375 7.875 0.4375 7.875 -1 6 C-0.6875 2.8125 -0.6875 2.8125 0 0 Z " fill="#FBBD6A" transform="translate(210,300)"/>
<path d="M0 0 C1.08892712 2.83121051 0.96109941 4.16532751 0.25 7.1875 C-0.36875 8.5796875 -0.36875 8.5796875 -1 10 C-1.99 10.33 -2.98 10.66 -4 11 C-3.39301257 6.87248551 -1.96189209 3.6678852 0 0 Z " fill="#E7AF54" transform="translate(215,283)"/>
<path d="M0 0 C-1.2491742 3.45925163 -2.67527795 6.14693203 -5 9 C-5.75 6.75 -5.75 6.75 -6 4 C-2.86486486 0 -2.86486486 0 0 0 Z " fill="#E79F3A" transform="translate(206,227)"/>
<path d="M0 0 C4.42857143 5.14285714 4.42857143 5.14285714 5 9 C3.02 8.34 1.04 7.68 -1 7 C-0.67 4.69 -0.34 2.38 0 0 Z " fill="#E9AE45" transform="translate(266,207)"/>
<path d="M0 0 C0.33 0 0.66 0 1 0 C1.16682272 4.92127034 1.24828052 8.50343896 -1 13 C-1.33 13 -1.66 13 -2 13 C-2.33 10.69 -2.66 8.38 -3 6 C-2.34 6 -1.68 6 -1 6 C-0.67 4.02 -0.34 2.04 0 0 Z " fill="#F7E0B0" transform="translate(209,296)"/>
<path d="M0 0 C0.99 0.33 1.98 0.66 3 1 C1.68 2.65 0.36 4.3 -1 6 C-2.32 5.67 -3.64 5.34 -5 5 C-3.35 3.35 -1.7 1.7 0 0 Z " fill="#E7B459" transform="translate(247,176)"/>
<path d="M0 0 C3.3125 0.1875 3.3125 0.1875 7 1 C8.9375 3.5625 8.9375 3.5625 10 6 C8.68 5.67 7.36 5.34 6 5 C6 4.34 6 3.68 6 3 C4.02 2.34 2.04 1.68 0 1 C0 0.67 0 0.34 0 0 Z " fill="#E8A642" transform="translate(279,234)"/>
<path d="M0 0 C0.66 0 1.32 0 2 0 C1.67 1.98 1.34 3.96 1 6 C-0.65 6.33 -2.3 6.66 -4 7 C-4 6.34 -4 5.68 -4 5 C-3.01 5 -2.02 5 -1 5 C-0.67 3.35 -0.34 1.7 0 0 Z " fill="#FEF0D7" transform="translate(205,298)"/>
<path d="M0 0 C0.33 0.66 0.66 1.32 1 2 C0.22265625 3.9453125 0.22265625 3.9453125 -0.9375 6.125 C-1.31777344 6.84945313 -1.69804687 7.57390625 -2.08984375 8.3203125 C-2.39019531 8.87460937 -2.69054687 9.42890625 -3 10 C-3.33 10 -3.66 10 -4 10 C-3.38461538 3.47692308 -3.38461538 3.47692308 -1.4375 1.0625 C-0.7259375 0.5365625 -0.7259375 0.5365625 0 0 Z " fill="#E6B864" transform="translate(214,277)"/>
<path d="M0 0 C0.66 0 1.32 0 2 0 C0.47291037 3.43595166 -1.59927045 6.11912454 -4 9 C-4 7.35 -4 5.7 -4 4 C-3.34 4 -2.68 4 -2 4 C-1.34 2.68 -0.68 1.36 0 0 Z " fill="#E1AA51" transform="translate(219,268)"/>
<path d="M0 0 C5.95703125 -0.390625 5.95703125 -0.390625 8 0 C8.99 1.32 9.98 2.64 11 4 C7.37 3.01 3.74 2.02 0 1 C0 0.67 0 0.34 0 0 Z " fill="#CF8C21" transform="translate(253,269)"/>
<path d="M0 0 C3.44216672 2.6598561 3.99504674 5.90288286 5 10 C4.01 10 3.02 10 2 10 C0.68373308 6.38026598 0 3.90432869 0 0 Z " fill="#E9A339" transform="translate(271,216)"/>
<path d="M0 0 C0.66 0 1.32 0 2 0 C2 0.99 2 1.98 2 3 C2.99 3.33 3.98 3.66 5 4 C4.01 4.66 3.02 5.32 2 6 C1.01 5.34 0.02 4.68 -1 4 C-0.67 2.68 -0.34 1.36 0 0 Z " fill="#FDF6E1" transform="translate(280,227)"/>
<path d="M0 0 C2.35953094 2.35953094 2.49141413 3.77895617 3 7 C3.66 7 4.32 7 5 7 C5 7.66 5 8.32 5 9 C3.68 8.67 2.36 8.34 1 8 C0.67 5.36 0.34 2.72 0 0 Z " fill="#CE851D" transform="translate(246,282)"/>
<path d="M0 0 C0.33 0.66 0.66 1.32 1 2 C-1.25 4.5625 -1.25 4.5625 -4 7 C-5.32 6.67 -6.64 6.34 -8 6 C-5.36 4.02 -2.72 2.04 0 0 Z " fill="#ECB75E" transform="translate(248,246)"/>
<path d="M0 0 C1.65 0 3.3 0 5 0 C3.3125 2.0625 3.3125 2.0625 1 4 C-1.75 3.75 -1.75 3.75 -4 3 C-2.68 2.67 -1.36 2.34 0 2 C0 1.34 0 0.68 0 0 Z " fill="#EAB154" transform="translate(273,309)"/>
<path d="M0 0 C2.475 0.495 2.475 0.495 5 1 C4.34 2.98 3.68 4.96 3 7 C0.64046906 4.64046906 0.50858587 3.22104383 0 0 Z " fill="#FBD090" transform="translate(202,294)"/>
<path d="M0 0 C0.99 0 1.98 0 3 0 C2.1875 3.4375 2.1875 3.4375 1 7 C0.01 7.33 -0.98 7.66 -2 8 C-2 7.34 -2 6.68 -2 6 C-1.34 6 -0.68 6 0 6 C0 4.02 0 2.04 0 0 Z " fill="#E3AC5A" transform="translate(207,287)"/>
<path d="M0 0 C1.65 0 3.3 0 5 0 C3.68 0.33 2.36 0.66 1 1 C1.66 2.98 2.32 4.96 3 7 C2.01 7 1.02 7 0 7 C0 4.69 0 2.38 0 0 Z " fill="#DB8D17" transform="translate(239,263)"/>
<path d="M0 0 C-2.98646769 1.99097846 -5.59687262 2.94124926 -9 4 C-8.67 3.01 -8.34 2.02 -8 1 C-5.29120665 -0.35439668 -2.99066732 -0.06501451 0 0 Z " fill="#E8B358" transform="translate(269,232)"/>
<path d="M0 0 C0.33 0.66 0.66 1.32 1 2 C-0.4375 4.625 -0.4375 4.625 -2 7 C-3.32 6.67 -4.64 6.34 -6 6 C-5.01 5.67 -4.02 5.34 -3 5 C-1.8499169 3.03327085 -1.8499169 3.03327085 -1 1 C-0.67 0.67 -0.34 0.34 0 0 Z " fill="#E9B667" transform="translate(237,186)"/>
</svg>
